<svg width="15" height="16" viewBox="0 0 15 16" fill="none" xmlns="http://www.w3.org/2000/svg">
<path fill-rule="evenodd" clip-rule="evenodd" d="M1.43322 2.00348C2.94493 0.491777 5.39589 0.491777 6.9076 2.00348C8.4193 3.51519 8.4193 5.96615 6.9076 7.47786C6.34491 8.04055 5.65209 8.39379 4.92601 8.53759L7.06439 10.676C7.20819 9.9499 7.56144 9.25707 8.12413 8.69439C9.63583 7.18268 12.0868 7.18268 13.5985 8.69439C15.1102 10.2061 15.1102 12.6571 13.5985 14.1688C12.1896 15.5777 9.96483 15.6735 8.44496 14.4562L8.42826 14.4729L8.12413 14.1688L1.43322 7.47786L1.12909 7.17373L1.1458 7.15702C-0.0714932 5.63715 0.0243155 3.41239 1.43322 2.00348ZM9.34065 12.9522C10.1805 13.7921 11.5421 13.7921 12.382 12.9522C13.2218 12.1124 13.2218 10.7508 12.382 9.91091C11.5421 9.07108 10.1805 9.07108 9.34065 9.91091C8.50082 10.7508 8.50082 12.1124 9.34065 12.9522ZM5.69107 6.26133C4.85123 7.10117 3.48959 7.10117 2.64975 6.26133C1.80991 5.42149 1.80991 4.05985 2.64975 3.22001C3.48959 2.38017 4.85123 2.38017 5.69107 3.22001C6.53091 4.05985 6.53091 5.42149 5.69107 6.26133Z" fill="#141313"/>
</svg>
