<svg width="27" height="32" viewBox="0 0 27 32" fill="none" xmlns="http://www.w3.org/2000/svg">
<path d="M0.821601 24.156L12.4874 30.8787C12.9967 31.171 13.6213 31.171 14.1306 30.8787L25.8492 24.1224C26.9447 23.4899 26.9399 21.9183 25.8492 21.2906L16.4849 15.9047L25.6907 10.6099C26.7861 9.98224 26.7861 8.40578 25.6907 7.77807L14.1162 1.11766C13.6069 0.825365 12.9823 0.825365 12.4778 1.11766L0.821601 7.82599C0.312305 8.11828 0 8.65974 0 9.24432V22.7424C0 23.327 0.312305 23.8637 0.821601 24.156ZM13.2657 4.18911L21.8373 9.11495L13.2657 14.0456L4.69418 9.11974L13.2657 4.18911ZM10.1091 15.8856L3.13746 19.9154V11.8558L10.1091 15.8856ZM13.2657 27.582L4.7182 22.6562L13.285 17.7256L21.8565 22.6514L13.2657 27.582Z" fill="white"/>
</svg>
