<svg width="16" height="16" viewBox="0 0 16 16" fill="none" xmlns="http://www.w3.org/2000/svg">
<path d="M4.09599 1.2645C2.90366 1.95983 1.95943 2.90328 1.26488 4.09639C0.570322 5.28872 0.222656 6.58994 0.222656 8.00005C0.222656 9.41016 0.570323 10.7114 1.26488 11.9045C1.95943 13.0968 2.90366 14.0411 4.09599 14.7356C5.28832 15.4302 6.59032 15.7778 8.00043 15.7778C9.41055 15.7778 10.7125 15.4309 11.9049 14.7356C13.098 14.0403 14.0414 13.0968 14.736 11.9037C15.4305 10.7114 15.7782 9.41016 15.7782 8.00005C15.7782 6.58994 15.4305 5.28872 14.736 4.09561C14.0414 2.90327 13.098 1.95905 11.9049 1.26372C10.7125 0.569164 9.41055 0.222274 8.00043 0.222274C6.59032 0.222275 5.28832 0.569164 4.09599 1.2645ZM1.51377 8.00005C1.51377 6.4445 2.01154 5.06628 3.00632 3.86228C3.91943 4.57783 4.67077 5.64027 5.26188 7.05116C3.85177 7.8305 2.67421 8.67517 1.73077 9.5875C1.5861 9.05705 1.51377 8.52972 1.51377 8.00005ZM3.95599 13.0478C3.21943 12.4614 2.64466 11.7598 2.22932 10.9393C3.16343 9.99661 4.32932 9.13094 5.72932 8.3415C6.19599 9.89705 6.42932 11.5413 6.42932 13.2734C6.42932 13.7191 6.41921 14.0558 6.39821 14.2845C5.5061 14.0457 4.69255 13.6335 3.95599 13.0478ZM8.00043 14.4867C7.95843 14.4867 7.9071 14.4844 7.84488 14.4789C7.78266 14.4735 7.73132 14.4712 7.68932 14.4712C7.70021 14.2736 7.70488 13.9726 7.70488 13.5682C7.70488 11.4946 7.41943 9.56572 6.84932 7.78228C7.13943 7.63683 7.4661 7.48594 7.82932 7.33116C8.05721 8.35783 8.61177 9.41094 9.49377 10.4897C10.3758 11.5685 11.3037 12.3556 12.2782 12.8534C11.0439 13.9423 9.61821 14.4867 8.00043 14.4867ZM14.4871 8.00005C14.4871 9.47316 14.0305 10.7954 13.119 11.9675C12.1958 11.5001 11.313 10.7822 10.4738 9.81228C9.63377 8.84316 9.11032 7.88105 8.90266 6.92672C10.5617 6.32628 12.2774 5.92105 14.0515 5.71339C14.3417 6.47094 14.4871 7.23316 14.4871 8.00005ZM11.4071 2.49339C12.2362 3.01139 12.916 3.68027 13.4457 4.50005C11.8279 4.68672 10.2513 5.0445 8.71599 5.57261C8.66466 4.84772 8.63821 4.19983 8.63821 3.62816C8.63821 3.00672 8.66466 2.31683 8.71599 1.56005C9.68043 1.66427 10.5772 1.97539 11.4071 2.49339ZM7.51821 3.45783C7.51821 4.36005 7.55477 5.19461 7.6271 5.96228C7.11921 6.15983 6.69921 6.33561 6.3671 6.49116C5.66243 4.88428 4.80688 3.74405 3.80043 3.06972C4.90021 2.13639 6.15477 1.62772 7.56488 1.54528C7.53377 2.17683 7.51821 2.81461 7.51821 3.45783Z" fill="#141313"/>
</svg>
