<svg width="19" height="15" viewBox="0 0 19 15" fill="none" xmlns="http://www.w3.org/2000/svg">
<path fill-rule="evenodd" clip-rule="evenodd" d="M3.49422 0.634521C2.06897 0.634521 0.913574 1.78992 0.913574 3.21517V11.8173C0.913574 13.2426 2.06897 14.398 3.49422 14.398H15.5372C16.9625 14.398 18.1179 13.2426 18.1179 11.8173V3.21517C18.1179 1.78992 16.9625 0.634521 15.5372 0.634521H3.49422ZM2.71255 2.85554C2.84873 2.56006 3.14752 2.35495 3.49422 2.35495H15.5372C15.8839 2.35495 16.1827 2.56006 16.3189 2.85554L10.0438 7.73614C9.73321 7.97774 9.29824 7.97774 8.9876 7.73614L2.71255 2.85554ZM2.634 4.974V9.98072L5.74163 7.39104L2.634 4.974ZM2.70532 12.1608C2.83792 12.4649 3.14124 12.6775 3.49422 12.6775H15.5372C15.8902 12.6775 16.1935 12.4649 16.3261 12.1608L11.8998 8.47217L11.1001 9.09416C10.1682 9.81897 8.86326 9.81897 7.93136 9.09416L7.13166 8.47217L2.70532 12.1608ZM16.3974 9.98072V4.974L13.2898 7.39104L16.3974 9.98072Z" fill="#141313"/>
</svg>
