<svg width="33" height="36" viewBox="0 0 33 36" fill="none" xmlns="http://www.w3.org/2000/svg">
<path d="M8.75433 4.90568L8.75433 35.1707C8.75419 35.4604 8.60502 35.7283 8.36216 35.8752C8.11929 36.0222 7.81894 36.0261 7.5725 35.8856L0.409862 31.7958C0.157049 31.6517 0.000148656 31.378 0 31.0809L0 0.815807C0.000144871 0.526165 0.14931 0.258198 0.392176 0.111286C0.635041 -0.0356293 0.93539 -0.0395775 1.18183 0.100899L8.34447 4.19077C8.59728 4.33488 8.75418 4.60855 8.75433 4.90568Z" fill="white"/>
<path d="M20.4262 4.90763L20.4262 35.1727C20.4261 35.4623 20.2769 35.7303 20.034 35.8772C19.7912 36.0241 19.4908 36.0281 19.2444 35.8876L12.0817 31.7977C11.8289 31.6536 11.672 31.3799 11.6719 31.0828L11.6719 0.81776C11.672 0.528118 11.8212 0.260151 12.0641 0.113239C12.3069 -0.0336761 12.6073 -0.0376244 12.8537 0.102852L20.0163 4.19272C20.2692 4.33683 20.4261 4.6105 20.4262 4.90763Z" fill="white"/>
<path d="M32.0981 4.90763V35.1727C32.0979 35.4623 31.9488 35.7303 31.7059 35.8772C31.463 36.0241 31.1627 36.0281 30.9162 35.8876L23.7536 31.7977C23.5008 31.6536 23.3439 31.3799 23.3438 31.0828L23.3438 0.81776C23.3439 0.528118 23.4931 0.260151 23.7359 0.113239C23.9788 -0.0336761 24.2791 -0.0376244 24.5256 0.102852L31.6882 4.19272C31.941 4.33683 32.0979 4.6105 32.0981 4.90763Z" fill="white"/>
</svg>
