<svg width="22" height="22" viewBox="0 0 22 22" fill="none" xmlns="http://www.w3.org/2000/svg">
<path d="M10.186 21.4186L8.9022 17.6314C8.19317 15.5398 6.5427 13.8352 4.36925 13.0985L0.582028 11.8147C-0.194074 11.5516 -0.193945 10.4497 0.582028 10.1867L4.36925 8.90287C6.46088 8.19388 8.16545 6.54333 8.9022 4.36992L10.186 0.582744C10.4491 -0.193357 11.551 -0.193186 11.814 0.582744L13.0978 4.36992C13.8069 6.46156 15.4573 8.16613 17.6308 8.90287L21.418 10.1867C22.1941 10.4498 22.1939 11.5516 21.418 11.8147L17.6308 13.0985C15.5392 13.8074 13.8346 15.458 13.0978 17.6314L11.814 21.4186C11.5509 22.1948 10.449 22.1945 10.186 21.4186ZM3.53518 11.0006L4.92114 11.4704C7.50932 12.3478 9.61857 14.3901 10.5302 17.0795L11 18.4655L11.4698 17.0795C12.3472 14.4913 14.3895 12.3821 17.0789 11.4704L18.4648 11.0006L17.0789 10.5308C14.4907 9.65349 12.3815 7.61114 11.4698 4.92173L11 3.53577L10.5302 4.92173C9.65286 7.50991 7.61051 9.61916 4.92114 10.5308L3.53518 11.0006Z" fill="#141313"/>
</svg>
