<svg width="12" height="18" viewBox="0 0 12 18" fill="none" xmlns="http://www.w3.org/2000/svg">
<path fill-rule="evenodd" clip-rule="evenodd" d="M9.58447 8.87941L6.00008 14.7918L2.41569 8.87941C0.677158 6.01174 2.69711 2.30911 6.00008 2.30911C9.30305 2.30911 11.323 6.01174 9.58447 8.87941ZM1.04806 9.7439C-1.35382 5.78207 1.43685 0.666687 6.00008 0.666687C10.5633 0.666687 13.354 5.78207 10.9521 9.7439L6.53565 17.0287C6.2894 17.4349 5.71076 17.4349 5.46451 17.0287L1.04806 9.7439ZM6.00024 4.77274C5.1119 4.77274 4.39176 5.50808 4.39176 6.41517C4.39176 7.32225 5.1119 8.05759 6.00024 8.05759C6.88858 8.05759 7.60872 7.32225 7.60872 6.41517C7.60872 5.50808 6.88858 4.77274 6.00024 4.77274Z" fill="black"/>
</svg>
