<svg width="30" height="40" viewBox="0 0 30 40" fill="none" xmlns="http://www.w3.org/2000/svg">
<path fill-rule="evenodd" clip-rule="evenodd" d="M21.3187 6.44434V35.3973C19.0277 36.8082 16.3003 37.9704 13.2866 38.7332C10.7983 39.364 8.35306 39.6618 6.06742 39.6618C3.86367 39.6618 1.80839 39.3852 0 38.8607V9.90798C0.000971992 9.90798 0.00267298 9.90871 0.00364497 9.90871C0.676992 10.1036 1.38436 10.2645 2.12162 10.3895C2.80371 10.5055 3.51108 10.5907 4.23959 10.6432C4.83542 10.6876 5.44534 10.7099 6.06742 10.7099C8.35403 10.7099 10.7983 10.411 13.2866 9.78101C16.3003 9.01722 19.0277 7.85592 21.3187 6.44434ZM17.0823 13.0911C16.9032 13.152 16.7232 13.2117 16.5423 13.2701L17.0822 13.2698L17.0823 13.0911Z" fill="white"/>
<path fill-rule="evenodd" clip-rule="evenodd" d="M29.2527 0V31.9779C26.6953 33.5362 23.6508 34.8199 20.2867 35.6624C17.509 36.359 14.7794 36.688 12.228 36.688C9.76801 36.688 7.47375 36.3824 5.45508 35.8032V3.82551C5.45616 3.82551 5.45806 3.82632 5.45915 3.82632C6.21079 4.04153 7.00041 4.21926 7.82339 4.35734C8.5848 4.48544 9.37442 4.57956 10.1876 4.63754C10.8528 4.68663 11.5336 4.71117 12.228 4.71117C14.7805 4.71117 17.509 4.38107 20.2867 3.68528C23.6508 2.8417 26.6953 1.55906 29.2527 0Z" fill="white"/>
</svg>
