<svg width="18" height="18" viewBox="0 0 18 18" fill="none" xmlns="http://www.w3.org/2000/svg">
<path fill-rule="evenodd" clip-rule="evenodd" d="M2.33341 3.16669C2.33341 2.70645 2.70651 2.33335 3.16675 2.33335H14.8334C15.2937 2.33335 15.6667 2.70645 15.6667 3.16669V14.8334C15.6667 15.2936 15.2937 15.6667 14.8334 15.6667L14.0001 15.6667C14.0001 13.3655 12.1346 11.5 9.83341 11.5H8.16675C5.86556 11.5 4.00008 13.3655 4.00008 15.6667L3.16675 15.6667C2.70651 15.6667 2.33341 15.2936 2.33341 14.8334V3.16669ZM5.66675 15.6667H12.3334C12.3334 14.286 11.2141 13.1667 9.83341 13.1667H8.16675C6.78604 13.1667 5.66675 14.286 5.66675 15.6667ZM3.16675 0.666687C1.78604 0.666687 0.666748 1.78598 0.666748 3.16669V14.8334C0.666748 16.2141 1.78604 17.3334 3.16675 17.3334H14.8334C16.2141 17.3334 17.3334 16.2141 17.3334 14.8334V3.16669C17.3334 1.78598 16.2141 0.666687 14.8334 0.666687H3.16675ZM7.33341 7.33335C7.33341 8.25383 8.07961 9.00002 9.00008 9.00002C9.92056 9.00002 10.6667 8.25383 10.6667 7.33335C10.6667 6.41288 9.92056 5.66669 9.00008 5.66669C8.07961 5.66669 7.33341 6.41288 7.33341 7.33335ZM9.00008 4.00002C7.15913 4.00002 5.66675 5.4924 5.66675 7.33335C5.66675 9.1743 7.15913 10.6667 9.00008 10.6667C10.841 10.6667 12.3334 9.1743 12.3334 7.33335C12.3334 5.4924 10.841 4.00002 9.00008 4.00002Z" fill="#141313"/>
</svg>
